<svg xmlns="http://www.w3.org/2000/svg" viewBox="0 0 256 256">
  <defs>
    <linearGradient id="background" x1="128" y1="24" x2="128" y2="232" gradientUnits="userSpaceOnUse">
      <stop offset="0" stop-color="#6366f1"/>
      <stop offset="0.55" stop-color="#2563eb"/>
      <stop offset="1" stop-color="#0ea5e9"/>
    </linearGradient>
    <linearGradient id="shine" x1="60" y1="48" x2="190" y2="210" gradientUnits="userSpaceOnUse">
      <stop offset="0" stop-color="#ffffff" stop-opacity="0.22"/>
      <stop offset="1" stop-color="#ffffff" stop-opacity="0.04"/>
    </linearGradient>
  </defs>
  <rect x="8" y="8" width="240" height="240" rx="56" fill="#080d1a"/>
  <rect x="12" y="12" width="232" height="232" rx="52" fill="url(#background)"/>
  <circle cx="128" cy="120" r="82" fill="url(#shine)"/>
  <path d="M91 65c0-7 7.7-11.3 13.7-7.6l70.6 43.2c5.8 3.6 5.8 12 0 15.6l-70.6 43.2c-6 3.7-13.7-.6-13.7-7.6V65z" fill="#fff"/>
  <path d="M128 151v48m0 0-22-22m22 22 22-22" fill="none" stroke="#fff" stroke-width="13" stroke-linecap="round" stroke-linejoin="round"/>
  <path d="M88 216h80" fill="none" stroke="#dbeafe" stroke-width="11" stroke-linecap="round"/>
</svg>
